<?xml version="1.0" standalone="no"?>
<!DOCTYPE svg PUBLIC "-//W3C//DTD SVG 20010904//EN"
 "http://www.w3.org/TR/2001/REC-SVG-20010904/DTD/svg10.dtd">
<svg version="1.0" xmlns="http://www.w3.org/2000/svg"
 width="512.000000pt" height="512.000000pt" viewBox="0 0 512.000000 512.000000"
 preserveAspectRatio="xMidYMid meet">
<metadata>
Created by potrace 1.14, written by Peter Selinger 2001-2017
</metadata>
<g transform="translate(0.000000,512.000000) scale(0.100000,-0.100000)"
fill="#000000" stroke="none">
<path d="M1532 4786 c-92 -32 -141 -109 -143 -229 l-1 -77 -217 -1 c-254 0
-281 -2 -346 -24 -131 -45 -250 -176 -281 -310 -13 -55 -11 -3104 1 -3165 33
-156 162 -291 313 -326 75 -18 3309 -21 3394 -3 155 32 286 164 324 324 17 78
18 3091 0 3167 -42 176 -198 317 -367 333 -24 2 -141 4 -260 4 l-215 1 -1 78
c-1 87 -15 126 -66 180 -77 81 -230 75 -304 -12 -40 -47 -52 -87 -54 -170 l-1
-76 -747 0 -747 0 -1 78 c0 53 -6 89 -18 113 -51 101 -162 150 -263 115z"/>
</g>
</svg>
